<svg viewBox="0 0 1024 1024"><path fill="#e66362" d="M71.36 488h52.8q21.12 0 34.08-3.84t25.44-14.4l15.36-15.36q9.6-9.6 20.16-22.08t21.6-25.44 20.64-24.48q19.2-24 34.56-18.72t23.04 22.56l42.24 116.16q32.64-91.2 57.6-165.12 10.56-31.68 21.12-61.92t19.2-55.68 14.4-42.24 6.72-21.6q4.8-16.32 14.4-26.4t21.12-10.08q12.48 0 25.92 7.2t17.28 29.28q.96 5.76 3.84 30.72t7.68 62.4T580.64 332t11.04 92.64q12.48 110.4 28.8 246.72 21.12-69.12 38.4-125.76 6.72-24 13.92-47.52t13.44-43.2 10.08-33.12 5.76-17.28q4.8-15.36 11.52-23.04t18.24-10.56q22.08-5.76 33.12 6.24T776 401.6q0 10.56-1.92 18.24-.96 3.84-.96 6.72l34.56 94.08q.96-.96 2.88-3.84 2.88-4.8 9.6-20.16 7.68-16.32 25.44-21.6t34.08-4.32q10.56.96 21.12.96h44.16v72.96q-5.76.96-11.52.96h-24.96q-13.44-.96-24.96 7.2t-16.32 15.84q-3.84 7.68-13.44 29.76t-17.28 45.12q-3.84 11.52-12.48 15.36t-17.76 3.36-17.28-5.28-11.04-11.52-9.6-23.52-13.44-34.08q-8.64-20.16-17.28-43.2-24.96 79.68-45.12 146.88-8.64 28.8-17.28 56.64t-15.84 51.36-12 39.84-5.76 22.08q-4.8 23.04-18.24 36.48t-32.64 12.48q-20.16-1.92-28.8-17.28t-10.56-35.52q0-4.8-2.4-29.76t-6.24-63.36-8.16-85.44-9.12-96q-10.56-114.24-24.96-255.36-26.88 78.72-48 141.12-8.64 26.88-17.76 52.8t-16.32 47.04-12 35.52l-5.76 17.28q-4.8 12.48-12.96 23.04t-25.44 9.6q-17.28 0-25.92-12t-13.44-27.36q-2.88-7.68-10.56-29.76T296 539.84q-10.56-26.88-22.08-59.52-6.72 8.64-14.4 17.28-6.72 7.68-14.4 16.8t-15.36 17.76q-15.36 18.24-28.8 24.96t-31.68 4.8q-9.6-.96-25.44-.48t-32.16.48q-18.24.96-40.32.96V488z"/></svg>