<svg viewBox="0 0 1024 1024"><path fill="#fff" d="M834.17 726.501H592.857c-14.81 0-26.813-12-26.813-26.813v-53.625c0-14.806 12.007-26.813 26.813-26.813h160.876c44.423 0 80.438-36.009 80.438-80.438v-53.625c0-44.423-36.015-80.438-80.438-80.438H592.857c-14.806 0-26.813-12.008-26.813-26.807v-53.63c0-14.806 12.007-26.813 26.813-26.813h241.314c59.23 0 107.25 48.016 107.25 107.25v214.5c0 59.236-48.02 107.252-107.251 107.252zM297.918 538.813v-53.626c0-14.806 12-26.814 26.813-26.814h375.377c14.806 0 26.814 12.008 26.814 26.814v53.626c0 14.811-12 26.814-26.814 26.814H324.731c-14.813-.002-26.813-12.003-26.813-26.814zM431.98 404.75H271.105c-44.423 0-80.439 36.016-80.439 80.438v53.625c0 44.428 36.016 80.438 80.439 80.438H431.98c14.806 0 26.813 12.008 26.813 26.814v53.625c0 14.81-12 26.813-26.813 26.813H190.668c-59.229 0-107.25-48.016-107.25-107.25V404.75c0-59.234 48.021-107.25 107.25-107.25h241.315c14.805 0 26.813 12.008 26.813 26.814v53.63c-.002 14.799-12.01 26.806-26.815 26.806z"/></svg>