<svg viewBox="0 0 1024 1024"><path fill="#fff" d="M783.75 97.748a77.672 77.672 0 0 1 77.18 68.947l65.322 578.322h-.388a146.205 146.205 0 0 1-145.817 156.846H243.953A146.205 146.205 0 0 1 98.136 745.017h-.388l65.322-578.322a77.672 77.672 0 0 1 77.155-68.947h543.524zm-3.703 589.403H243.953a69.206 69.206 0 0 0-10.667.829l1.993-.285a68.378 68.378 0 0 0-4.194.647l2.2-.362a44.295 44.295 0 0 0-3.78.699l1.554-.337a68.015 68.015 0 0 0-13.515 4.09l1.347-.569a65.787 65.787 0 0 0-3.91 1.683l2.563-1.113a68.17 68.17 0 0 0-3.236 1.45l.673-.337a60.764 60.764 0 0 0-3.883 1.994l3.21-1.657a68.43 68.43 0 0 0-18.02 12.557l1.76-1.657a68.947 68.947 0 0 0-2.822 2.692l1.036-1.035a68.973 68.973 0 0 0-2.589 2.692l1.553-1.657c-1.035 1.062-2.07 2.15-3.029 3.288l1.45-1.63a68.921 68.921 0 0 0-2.46 2.795l1.01-1.165a68.87 68.87 0 0 0-2.433 2.952l1.424-1.787c-1.036 1.295-2.072 2.615-3.056 3.988l1.632-2.201a118.497 118.497 0 0 0-2.279 3.107l.647-.906a55.313 55.313 0 0 0-2.2 3.262l1.553-2.356c-.777 1.139-1.553 2.304-2.252 3.495l.699-1.14a60.37 60.37 0 0 0-2.072 3.548l1.373-2.408a72.835 72.835 0 0 0-2.201 3.935l.803-1.527c-.518.932-.984 1.89-1.476 2.848l.673-1.32a68.222 68.222 0 0 0-1.76 3.676l1.087-2.33a58.996 58.996 0 0 0-2.071 4.712l.983-2.382a68.093 68.093 0 0 0-1.424 3.443l.415-1.061a68.015 68.015 0 0 0-1.347 3.728l.932-2.667a72.524 72.524 0 0 0-1.424 4.195l.492-1.528a59.86 59.86 0 0 0-1.061 3.495l.57-1.967a68.015 68.015 0 0 0-1.217 4.453l.647-2.486a68.067 68.067 0 0 0-1.01 4.117l.363-1.631c-.311 1.32-.57 2.667-.777 4.013l.414-2.382a68.533 68.533 0 0 0 67.109 82.566h536.094a68.533 68.533 0 0 0 66.1-86.683l.646 2.486a68.015 68.015 0 0 0-1.216-4.453l.57 1.967a67.99 67.99 0 0 0-1.036-3.495l.466 1.554a68.015 68.015 0 0 0-1.424-4.22l.932 2.666a68.015 68.015 0 0 0-1.347-3.728l.415 1.036a68.093 68.093 0 0 0-1.424-3.418l1.01 2.382a68.144 68.144 0 0 0-2.098-4.738l1.088 2.356a68.222 68.222 0 0 0-1.76-3.677l.672 1.32a68.352 68.352 0 0 0-1.501-2.847l.828 1.553a68.403 68.403 0 0 0-2.2-3.96l1.372 2.407a68.481 68.481 0 0 0-2.072-3.547l.7 1.14a68.61 68.61 0 0 0-2.253-3.496l1.553 2.33a68.662 68.662 0 0 0-2.2-3.236l.647.906a68.766 68.766 0 0 0-2.279-3.107l1.632 2.2a68.818 68.818 0 0 0-3.081-3.987l1.45 1.813a68.87 68.87 0 0 0-2.408-2.978l.958 1.165a68.921 68.921 0 0 0-2.46-2.822l1.502 1.657a68.947 68.947 0 0 0-3.055-3.262l1.553 1.605a68.973 68.973 0 0 0-2.59-2.666l1.037 1.035a68.947 68.947 0 0 0-2.823-2.692l1.761 1.657a68.87 68.87 0 0 0-18.046-12.583l3.262 1.683a68.3 68.3 0 0 0-3.883-1.968l.621.285a68.17 68.17 0 0 0-3.21-1.45l2.589 1.165a57.335 57.335 0 0 0-3.91-1.683l1.295.518a68.015 68.015 0 0 0-13.49-4.065l1.554.337a68.248 68.248 0 0 0-3.78-.7l2.227.363a68.378 68.378 0 0 0-4.195-.647l1.968.259a69.05 69.05 0 0 0-10.667-.803zm-12.169 31.975a36.558 36.558 0 1 1 0 73.116 36.558 36.558 0 0 1 0-73.116zM783.75 175.42H240.251l-50.203 444.286a145.817 145.817 0 0 1 53.905-10.227h536.094c19.03 0 37.231 3.624 53.905 10.252L783.749 175.42zM667.345 369.6v77.673h-310.69v-77.672h310.69z"/></svg>