<svg viewBox="0 0 1024 1024"><path fill="#1b1e24" d="M847.093 333.045H690.955V230.251h-197.91c-29.333 0-53.333 24-53.333 53.333v156.128H283.573c-29.333 0-53.333 24-53.333 53.333v197.92h102.795v156.128c0 29.334 24 53.334 53.333 53.334h251.253c29.334 0 53.334-24 53.334-53.334V690.955h156.128c29.333 0 53.333-24 53.333-53.334V386.38c.01-29.334-23.99-53.334-53.323-53.334z"/><path fill="#333842" d="M587.3919999999999 811.563a34.816 34.816 0 1 0 69.632 0 34.816 34.816 0 1 0-69.632 0zM372.46900000000005 223.115a34.816 34.816 0 1 0 69.632 0 34.816 34.816 0 1 0-69.632 0zM802.603 733.11h-305.6c-14.731 0-26.667-11.937-26.667-26.667s11.936-26.667 26.667-26.667h305.6c44.266 0 80.288-36.021 80.288-80.288V420.107c0-44.267-36.022-80.288-80.288-80.288h-85.11c-14.73 0-26.666-11.936-26.666-26.667s11.936-26.667 26.666-26.667h85.11c73.674 0 133.621 59.947 133.621 133.622v179.381c0 73.675-59.947 133.621-133.621 133.621zm-500.502 0h-85.109c-73.675 0-133.621-59.947-133.621-133.622V420.107c0-73.675 59.946-133.622 133.621-133.622h305.6c14.73 0 26.667 11.936 26.667 26.667s-11.936 26.667-26.667 26.667h-305.6c-44.267 0-80.288 36.021-80.288 80.288v179.381c0 44.267 36.021 80.288 80.288 80.288h85.11c14.73 0 26.666 11.936 26.666 26.667s-11.947 26.666-26.667 26.666z"/><path fill="#333842" d="M598.784 936.224H420.8c-74.059 0-134.315-60.256-134.315-134.315V613.824c0-72.064 58.635-130.699 130.699-130.699h185.227c42.656 0 77.365-34.709 77.365-77.365V217.685c0-44.65-36.33-80.981-80.981-80.981H420.8c-44.65 0-80.981 36.33-80.981 80.981v84.416c0 14.731-11.936 26.667-26.667 26.667s-26.667-11.936-26.667-26.667v-84.416c0-74.058 60.256-134.314 134.315-134.314h177.984c74.059 0 134.315 60.256 134.315 134.314V405.76c0 72.064-58.635 130.699-130.699 130.699H417.184c-42.656 0-77.365 34.709-77.365 77.365v188.075c0 44.65 36.33 80.981 80.981 80.981h177.984c44.65 0 80.981-36.33 80.981-80.981v-84.416c0-14.731 11.936-26.667 26.667-26.667s26.667 11.936 26.667 26.667v84.416c.01 74.069-60.246 134.325-134.315 134.325z"/></svg>