<svg xmlns="http://www.w3.org/2000/svg" fill="none" viewBox="0 0 500 500"><path fill="#fff" d="M480 250c0 151.221-78.779 230-230 230-151.22 0-230-78.779-230-230C20 98.78 97.684 20 248.905 20S480 98.78 480 250z"/><mask id="a" width="460" height="460" x="20" y="20" maskUnits="userSpaceOnUse" style="mask-type:alpha"><path fill="#fff" d="M480 250c0 151.221-78.779 230-230 230-151.22 0-230-78.779-230-230C20 98.78 97.684 20 248.905 20S480 98.78 480 250z"/></mask><g mask="url(#a)"><path fill="url(#paint0_linear_18_4)" d="M369.973 259.236l-101.656-21.608 21.608-101.658 23.147 35.646 120.83-41.52-87.076 93.496 23.147 35.644zM172.815 131.301c-49.671 32.257-72.25 90.45-61.667 145.231l-24.691 28.555c-24.805-72.991 1.658-156.192 69.27-200.098 67.613-43.909 154.381-34.243 210.974 18.103l-36.129 10.944c-45.741-31.949-108.086-34.991-157.757-2.735zm-43.37 108.885l101.658 21.608-21.608 101.658-23.147-35.646-120.83 41.52 87.076-93.496-23.149-35.644zm197.161 127.933c49.877-32.39 72.414-90.928 61.513-145.905l24.68-28.373c25.094 73.11-1.341 156.585-69.106 200.591-67.764 44.007-154.773 34.204-211.355-18.457l35.957-11.006c45.791 32.32 108.435 35.541 158.311 3.15z"/><path fill="#fff" fill-opacity=".82" d="M475.619 250c0 151.221-78.779 230-230 230-151.22 0-230-78.779-230-230 0-151.22 77.684-230 228.905-230s231.095 78.78 231.095 230z" filter="url(#filter0_b_18_4)"/><path fill="url(#paint1_linear_18_4)" d="M231.381 321.19a5.476 5.476 0 0 1 5.476-5.476h167.572a5.477 5.477 0 0 1 0 10.953H236.857a5.477 5.477 0 0 1-5.476-5.477z"/><path fill="url(#paint2_angular_18_4)" d="M163.817 229.299c0 2.089-.427 4.319-1.281 6.692a24.336 24.336 0 0 1-3.56 6.55c-1.423 1.993-3.18 3.702-5.268 5.126a13.476 13.476 0 0 1-6.834 2.135c2.563.19 5.078.95 7.546 2.278 2.563 1.234 4.841 2.943 6.834 5.126 1.994 2.183 3.607 4.699 4.841 7.546 1.329 2.848 1.994 5.885 1.994 9.113 0 5.695-.855 10.536-2.563 14.523-1.709 3.891-4.034 7.071-6.977 9.539-2.942 2.373-6.407 4.082-10.394 5.126-3.891 1.044-8.068 1.566-12.529 1.566H87.501V200.396h45.847c4.176 0 8.115.427 11.817 1.282 3.702.759 6.93 2.23 9.682 4.413 2.753 2.089 4.936 5.031 6.55 8.828 1.613 3.702 2.42 8.495 2.42 14.38zm-28.191 57.665c1.708 0 3.322-.38 4.841-1.139a14.717 14.717 0 0 0 3.986-3.275 18.63 18.63 0 0 0 2.706-4.556c.664-1.709.996-3.417.996-5.126 0-3.512-1.329-6.455-3.986-8.828-2.563-2.373-6.123-3.559-10.679-3.559h-26.056v26.483h28.192zm-28.192-44.281h24.49c1.993 0 3.702-.379 5.126-1.139 1.518-.759 2.752-1.756 3.702-2.99a11.776 11.776 0 0 0 2.278-4.129c.569-1.613.854-3.18.854-4.698 0-1.519-.285-2.99-.854-4.414-.57-1.424-1.329-2.658-2.278-3.702a11.564 11.564 0 0 0-3.418-2.563 8.282 8.282 0 0 0-3.986-.997h-25.914v24.632zm170.727-24.632h-29.757v86.568H228.47v-86.568h-29.9v-17.655h79.591v17.655zm123.455 86.568l-68.628-61.936v61.936h-19.791v-104.08h2.136l68.485 62.932v-62.932h19.933v104.08h-2.135z" filter="url(#filter1_d_18_4)"/></g><defs><filter id="filter0_b_18_4" width="503.81" height="503.81" x="-6.286" y="-1.905" color-interpolation-filters="sRGB" filterUnits="userSpaceOnUse"><feFlood flood-opacity="0" result="BackgroundImageFix"/><feGaussianBlur in="BackgroundImage" stdDeviation="10.952"/><feComposite in2="SourceAlpha" operator="in" result="effect1_backgroundBlur_18_4"/><feBlend in="SourceGraphic" in2="effect1_backgroundBlur_18_4" result="shape"/></filter><filter id="filter1_d_18_4" width="327.203" height="112.985" x="76.549" y="200.396" color-interpolation-filters="sRGB" filterUnits="userSpaceOnUse"><feFlood flood-opacity="0" result="BackgroundImageFix"/><feColorMatrix in="SourceAlpha" result="hardAlpha" values="0 0 0 0 0 0 0 0 0 0 0 0 0 0 0 0 0 0 127 0"/><feOffset dx="-6.571" dy="4.381"/><feGaussianBlur stdDeviation="2.19"/><feComposite in2="hardAlpha" operator="out"/><feColorMatrix values="0 0 0 0 1 0 0 0 0 1 0 0 0 0 1 0 0 0 0.25 0"/><feBlend in2="BackgroundImageFix" result="effect1_dropShadow_18_4"/><feBlend in="SourceGraphic" in2="effect1_dropShadow_18_4" result="shape"/></filter><linearGradient id="paint0_linear_18_4" x1="110.278" x2="464.599" y1="96.671" y2="174.745" gradientUnits="userSpaceOnUse"><stop stop-color="#33CEFF"/><stop offset="1" stop-color="#37D99F" stop-opacity="0"/></linearGradient><linearGradient id="paint1_linear_18_4" x1="233.571" x2="418.667" y1="317.357" y2="339.81" gradientUnits="userSpaceOnUse"><stop stop-color="#33CEFF"/><stop offset="1" stop-color="#37D99F" stop-opacity="0"/></linearGradient><radialGradient id="paint2_angular_18_4" cx="0" cy="0" r="1" gradientTransform="matrix(0 .5 -169.762 0 245.619 269.119)" gradientUnits="userSpaceOnUse"><stop offset=".294" stop-color="#303030"/><stop offset=".53" stop-color="#404040"/><stop offset=".82" stop-color="#555"/></radialGradient></defs></svg>