<svg viewBox="0 0 1024 1024"><path fill="#333842" d="M649.523 827.085c-225.229 0-407.859-182.58-407.859-407.86 0-107.57 41.728-205.363 109.773-278.271C206.029 203.315 104.14 347.699 104.14 515.942c0 225.23 182.63 407.86 407.859 407.86 117.658 0 223.642-49.87 298.086-129.588-49.305 21.146-103.577 32.87-160.563 32.87z"/><path fill="#fff" d="M919.86 485.274c-16.948 0-30.72 13.772-30.72 30.72 0 207.974-169.166 377.139-377.14 377.139s-377.14-169.165-377.14-377.14S304.027 138.855 512 138.855c108.032 0 209.715 46.132 280.78 125.39H676.71c-16.947 0-30.72 13.772-30.72 30.72s13.773 30.72 30.72 30.72h188.263c16.947 0 30.72-13.774 30.72-30.72V100.146c0-16.947-13.773-30.72-30.72-30.72s-30.72 13.773-30.72 30.72V218.42A438.18 438.18 0 0 0 512 77.363c-241.818 0-438.58 196.762-438.58 438.58S270.183 954.521 512 954.521s438.58-196.762 438.58-438.58c0-16.947-13.774-30.668-30.72-30.668z"/></svg>