<svg viewBox="0 0 1024 1024"><path fill="#c7cacf" d="M128 669.867V824a72 72 0 0 0 67.776 71.893L200 896h154.133c4.694 0 8.534 3.84 8.534 8.533v46.934a8.533 8.533 0 0 1-8.534 8.533h-148.65A141.483 141.483 0 0 1 64 818.517v-148.65c0-4.694 3.84-8.534 8.533-8.534h46.934c4.693 0 8.533 3.84 8.533 8.534zm832 0v148.65A141.483 141.483 0 0 1 818.517 960h-148.65a8.533 8.533 0 0 1-8.534-8.533v-46.934c0-4.693 3.84-8.533 8.534-8.533H824a72 72 0 0 0 71.893-67.776L896 824V669.867c0-4.694 3.84-8.534 8.533-8.534h46.934c4.693 0 8.533 3.84 8.533 8.534zM362.667 72.533v46.934a8.533 8.533 0 0 1-8.534 8.533H200a72 72 0 0 0-71.893 67.776L128 200v154.133a8.533 8.533 0 0 1-8.533 8.534H72.533A8.533 8.533 0 0 1 64 354.133v-148.65A141.483 141.483 0 0 1 205.483 64h148.65c4.694 0 8.534 3.84 8.534 8.533zM818.517 64A141.483 141.483 0 0 1 960 205.483v148.65a8.533 8.533 0 0 1-8.533 8.534h-46.934a8.533 8.533 0 0 1-8.533-8.534V200a72 72 0 0 0-67.776-71.893L824 128H669.867a8.533 8.533 0 0 1-8.534-8.533V72.533c0-4.693 3.84-8.533 8.534-8.533h148.65z"/><path fill="#abb1c0" d="M551.147 780.63a14.507 14.507 0 0 1-27.094-1.28l-39.978-125.782a85.333 85.333 0 0 1 11.648-75.136l103.104-145.77-160.214 93.589a85.333 85.333 0 0 1-71.744 6.677L244.16 489.067a14.464 14.464 0 0 1-.597-26.902L691.37 275.5a42.667 42.667 0 0 1 55.53 56.448L551.147 780.629z"/></svg>