<svg viewBox="0 0 1024 1024"><path fill="#fff" d="M663.611 493.543h-25.049v64.6h25.05c10.546 0 19.775-2.637 25.048-7.91 5.274-5.274 9.229-13.184 9.229-23.731s-2.637-18.457-9.229-23.73c-5.273-5.274-14.502-9.229-25.049-9.229z"/><path fill="#fff" d="M833.68 295.79H537.049l-98.877-98.878H190.32c-40.869 0-73.828 32.96-73.828 73.828v445.606c0 40.869 32.96 73.828 73.828 73.828h643.36c40.869 0 73.828-32.96 73.828-73.828v-345.41c0-42.188-32.96-75.147-73.828-75.147zM418.396 496.18h-77.783v44.824h72.51v29.004h-72.51v77.783h-35.595V467.176h113.378v29.004zm156.885 0h-50.097V647.79h-35.596V496.18H439.49v-29.004h135.791v29.004zm150.293 60.644c-5.273 9.229-11.865 15.82-22.412 21.094s-19.775 7.91-32.959 7.91h-32.959v63.281h-35.596V467.176h69.873c11.866 0 23.731 2.637 32.96 7.91 9.228 5.273 17.138 11.865 22.412 21.094 5.273 9.228 7.91 18.457 7.91 30.322-1.319 11.865-3.955 21.094-9.229 30.322z"/></svg>