<svg viewBox="0 0 1024 1024"><path fill="#fff" d="M64.363 512a93.75 93.75 0 1 0 187.5 0 93.75 93.75 0 1 0-187.5 0zM683.113 868.25a93.75 93.75 0 1 0 187.5 0 93.75 93.75 0 1 0-187.5 0zM683.113 155.75a93.75 93.75 0 1 0 187.5 0 93.75 93.75 0 1 0-187.5 0z"/><path fill="#fff" d="M522.762 321.575a18.563 18.563 0 0 0 20.813 8.812c102.6-25.912 199.237 35.85 226.012 130.463a18.713 18.713 0 0 0 18.038 13.65h153.263a18.825 18.825 0 0 0 18.524-21.713A374.512 374.512 0 0 0 874.1 268.325a18.75 18.75 0 0 0-24.638-3.413 130.387 130.387 0 0 1-72.6 22.088 131.625 131.625 0 0 1-131.025-129.488 18.75 18.75 0 0 0-16.8-18.375A377.363 377.363 0 0 0 455.6 161.9a18.75 18.75 0 0 0-9.525 26.887l76.687 132.788zM940.888 549.5H787.625a18.713 18.713 0 0 0-18.038 13.65c-26.775 94.612-123.375 156.375-226.012 130.463a18.75 18.75 0 0 0-20.813 8.812L446.075 835.25a18.75 18.75 0 0 0 9.525 26.888A372.9 372.9 0 0 0 629.038 884.9a18.75 18.75 0 0 0 16.8-18.375A131.625 131.625 0 0 1 776.862 737c25.875 0 50.962 7.65 72.6 22.05a18.75 18.75 0 0 0 24.637-3.413 374.4 374.4 0 0 0 85.313-184.424 19.087 19.087 0 0 0-4.238-15.15 18.9 18.9 0 0 0-14.287-6.563zm-485.963 93.038c-34.2-35.213-53.063-81.6-53.063-130.538s18.863-95.325 53.063-130.538A18.713 18.713 0 0 0 457.7 359l-76.537-132.563a18.637 18.637 0 0 0-28.088-5.175 375.225 375.225 0 0 0-118.162 169.163 18.713 18.713 0 0 0 5.812 20.588c30.9 25.312 48.638 62.1 48.638 100.987s-17.738 75.675-48.638 100.987a18.675 18.675 0 0 0-5.812 20.588 375.712 375.712 0 0 0 118.162 169.163 18.825 18.825 0 0 0 28.088-5.175l76.537-132.6a18.713 18.713 0 0 0-2.775-22.425z"/></svg>