<svg viewBox="0 0 1024 1024"><path fill="#fff" d="M513.604 68.267c-244.838-.58-443.733 197.495-444.552 442.538l-.785 337.408a106.086 106.086 0 0 0 105.472 106.735h.58l336.896.785c244.804.58 443.938-197.495 444.518-442.538.58-245.044-197.29-444.348-442.129-444.928zm97.997 171.076h.41a143.019 143.019 0 0 1 33.382 3.789c18.466 3.003 32.802 19.66 32.802 39.663 0 25.6-24.576 45.977-50.073 39.526-45.261-9.762-108.886 23.825-109.056 90.76l-.137 77.654a14.78 14.78 0 0 0 14.677 14.848h.069l55.535.136c53.691.342 53.52 81.784-.342 81.613l-70.417-.136-.17 92.535c-.342 114.518-106.394 191.352-207.668 170.052-9.42 0-32.87-14.336-32.87-39.97a41.13 41.13 0 0 1 40.448-40.687c10.41 0 10.41 2.595 25.941 2.595a92.433 92.433 0 0 0 92.74-92.058v-.273l.137-77.653c0-7.442-7.475-14.883-14.746-14.883l-55.534-.204c-53.863-.171-53.658-81.613.204-81.443l70.417.205.103-92.535A173.841 173.841 0 0 1 611.6 239.343zm68.267 14.063a175.343 175.343 0 0 1 96.665 105.472l-89.736-90.283a43.622 43.622 0 0 0-6.93-15.19zm9.591 27.136l91.204 92.672a166.952 166.952 0 0 1 4.677 37L683.213 306.722c3.754-7.782 6.246-15.155 6.246-23.586v-2.594zm-10.24 32.392l106.257 106.94c-.41 9.216-1.706 18.398-3.823 27.41L662.87 328.157a53.08 53.08 0 0 0 16.316-15.224zm13.04 55.33l87.722 88.201c-2.116 8.021-4.745 15.94-7.783 23.654L704 411.511a95.915 95.915 0 0 0-11.742-43.246zm11.195 53.658l65.263 65.81a138.923 138.923 0 0 1-11.06 19.797l-60.108-60.45c3.345-7.988 5.325-16.521 5.905-25.157zm-8.875 32.597l59.153 59.358a222.875 222.875 0 0 1-14.2 17.34l-57.685-57.89a104.037 104.037 0 0 0 12.766-18.773zm-17.852 24.27l57.686 57.89a208.896 208.896 0 0 1-16.691 14.847l-58.334-58.675a101.16 101.16 0 0 0 17.34-14.063zm-24.78 17.68l59.801 59.324a272.657 272.657 0 0 1-19.626 11.947l-62.806-63.488a81.92 81.92 0 0 0 22.63-7.783zm-323.892 9.592a82.944 82.944 0 0 0-12.731 18.876l-13.995-14.063a141.653 141.653 0 0 1 26.726-4.78zm-34.85 6.929l19.456 19.66-1.467 13.21a57.96 57.96 0 0 0 3.925 20.685l-44.578-44.988c7.304-3.515 14.882-6.45 22.664-8.601zm-30.071 12.288l63.147 63.385c-8.09 1.502-15.975 4.096-23.348 7.817L244.6 537.122c5.94-4.369 12.118-8.26 18.535-11.844zm377.276.99l44.578 44.92a123.392 123.392 0 0 1-22.665 8.737l-19.456-19.66 1.536-13.415a57.583 57.583 0 0 0-3.993-20.582zm-402.432 15.12l58.368 58.71a112.561 112.561 0 0 0-17.34 14.029l-57.685-57.208c4.983-5.734 10.58-10.922 16.69-15.53zm-21.982 20.344l57.753 57.856a94.89 94.89 0 0 0-12.766 18.808l-59.187-59.256c4.608-6.28 9.421-11.946 14.2-17.408zm424.209 6.35l14.063 13.994a166.468 166.468 0 0 1-26.624 4.778 58.71 58.71 0 0 0 12.56-18.773zm-442.368 17.305l60.177 60.484a78.814 78.814 0 0 0-5.94 25.122l-65.262-65.809a158.379 158.379 0 0 1 11.059-19.797zm-14.507 26.965l68.199 69.052c.546 15.018 4.3 29.798 11.059 43.247l-87.04-88.406c2.32-8.055 4.813-15.838 7.782-23.893zm-9.591 32.53l119.33 119.807a62.464 62.464 0 0 0-16.384 14.37L170.257 673.007c.17-9.455 1.331-18.91 3.482-28.126zm-3.482 38.501l102.264 102.742a51.61 51.61 0 0 0-5.906 23.688v1.775l-91.545-92.057a144.862 144.862 0 0 1-4.779-36.148zm8.738 50.757l89.737 90.18c1.4 5.461 3.754 10.581 6.929 15.223a175.582 175.582 0 0 1-96.666-105.403z"/></svg>