<svg viewBox="0 0 1024 1024"><path fill="#fff" d="M443.182 268.421c-10.06.997-6.525 10.061-12.053 10.061-5.015.514-4.018-11.057 12.053-10.06zm43.714 7.04c-5.014 1.51-5.528-8.036-14.56-5.529 14.56-6.525 19.575 3.504 14.56 5.529zM310.593 489.886c-4.532-1.511-3.504 7.521-8.036 14.56-3.503 6.525-12.568 11.54-5.528 12.568 2.507.515 9.546-5.528 12.567-12.568 2.508-8.55 5.015-13.05.997-14.56zM740.02 670.207c0-9.032-19.575-17.582-27.61-21.086 13.564-45.192 7.521-63.289-1.511-105.975-7.04-32.142-36.675-75.825-59.754-89.389 6.011 5.014 17.068 19.575 28.64 41.69 20.089 37.67 40.178 93.407 27.128 139.628-5.014 18.064-17.068 20.604-25.103 21.086-35.165 4.018-14.561-42.204-29.122-104.979-16.585-70.328-33.653-75.343-37.671-80.871-20.604-91.415-43.2-82.35-49.725-116.518-5.529-30.632 26.614-55.736-17.068-64.286-13.564-2.507-32.657-16.071-40.179-17.068s-11.539-50.721 16.586-52.232c27.61-2.025 32.657 31.147 27.61 44.197-8.035 13.05.515 18.064 14.08 13.564 11.057-3.504 4.017-32.657 6.524-36.675-7.039-42.204-24.621-48.214-42.685-51.718-69.3 5.529-38.186 81.868-45.193 74.829-10.06-10.543-39.182-.997-39.182-7.522.514-39.182-12.568-61.778-30.632-62.26-20.09-.515-28.125 27.61-29.122 43.682-1.51 15.075 8.55 46.703 16.072 44.196 5.014-1.51 13.564-11.54 4.532-11.057-4.532 0-11.54-11.057-12.568-24.107-.514-13.05 4.532-26.1 21.6-25.618 19.575.514 19.575 39.664 17.582 41.175a92.154 92.154 0 0 0-15.557 14.56c-6.525 10.543-19.093 13.565-24.107 18.065-8.55 9.032-10.543 19.093-4.018 22.596 23.11 13.05 15.557 28.125 47.7 29.122 21.086.996 36.675-3.022 51.236-7.522 11.057-3.503 46.703-11.057 54.225-24.107 3.503-5.528 7.521-5.528 10.06-4.018 5.015 2.507 6.011 12.054-6.525 15.075-17.582 5.015-35.164 14.561-51.235 20.604-15.558 6.525-20.604 9.032-35.165 11.54-33.139 6.01-57.76-12.054-35.646 9.546 7.521 7.039 14.56 11.539 33.653 11.057 42.204-1.511 88.908-52.232 93.408-29.636.996 5.014-13.05 11.057-24.108 16.586-39.182 19.093-66.792 57.246-91.896 44.196-22.596-12.053-45.193-67.79-44.71-42.686.514 38.668-50.722 72.836-27.13 117.033-15.556 4.017-50.239 77.85-55.253 116.003-3.021 22.114 2.025 49.21-3.503 64.286-7.522 22.114-41.69-21.086-30.633-73.832 2.025-9.032 0-11.057-2.507-6.525-13.564 24.621-6.01 59.271 5.015 83.378 4.532 10.543 16.071 15.075 24.621 24.107 17.582 20.09 86.882 71.325 98.936 83.861 15.557 14.56 11.057 48.729-21.086 52.232 16.586 31.147 32.657 34.136 32.143 84.89 19.093-10.061 11.54-32.143 3.503-46.19-5.528-10.06-12.567-14.56-11.057-17.068.997-1.51 11.057-10.06 16.586-3.503 17.068 19.093 49.21 22.596 83.379 18.064 34.65-4.018 71.807-16.071 88.907-43.682 8.035-13.05 13.564-17.582 17.068-15.075 4.017 2.025 5.528 11.057 5.014 26.1-.514 16.071-7.04 32.657-11.54 46.19-4.532 15.556-6.01 26.1 9.033 26.614 4.018-28.125 12.053-55.736 14.078-83.861 2.507-32.143-20.603-91.414 4.532-121.05 6.525-8.036 14.561-9.032 25.618-9.032 1.511-40.179 63.29-37.157 83.861-20.604zm-315.417-415.35c2.025-12.568-4.018-21.6-7.04-22.596-6.01-1.511-5.014 7.521-2.025 6.525 2.025 0 4.532 3.021 3.504 7.521-.997 6.01-.514 10.06 4.018 10.06.514 0 1.51 0 1.51-1.51zm210.439 98.936c-2.025-9.547-9.032-6.01-17.068-11.057-9.546-6.011-11.54-16.072-15.075-12.568-10.543 11.54 13.05 35.646 23.11 37.671 6.011.997 10.544-7.039 9.033-14.078zm-89.39-106.972c.515-12.053-10.06-18.064-12.567-17.582-6.525.515-4.532 3.504-1.511 4.532 4.018.997 8.036 8.036 9.032 15.558 0 .996 5.014-.997 5.014-2.508zm27.13-117.032c.513-2.507-6.012-5.528-10.544-9.032-4.018-4.018-8.035-7.521-12.053-7.521-10.061.996-5.015 11.539-6.525 16.585-2.025 5.529-9.547 10.061-4.532 14.079 4.532 3.504 7.521-5.529 17.067-9.032 2.508-.997 14.079.514 16.586-5.014zm283.756 673.522c61.779 38.185-23.11 69.814-59.753 88.393-28.64 14.56-66.793 46.703-80.872 60.267-10.543 10.061-54.225 15.075-78.846 2.508-28.64-14.561-13.564-37.672-57.76-39.183-22.115-.514-43.683-.514-65.283-.514-19.093.514-38.186 1.51-57.76 2.025-66.311 1.51-72.836 44.197-115.522 42.686-29.122-.997-65.797-24.107-129.086-37.157-44.196-9.032-86.882-11.54-95.914-31.147S126.8 849.5 128.31 830.407c1.51-25.618-19.093-60.268-4.018-73.318 13.05-11.539 40.693-3.021 58.757-13.05 19.093-11.057 27.129-19.575 27.129-43.2 7.039 24.107-.515 43.682-16.072 53.229-9.546 6.01-27.128 9.032-41.69 7.521-11.538-.996-18.578.515-21.6 5.015-4.531 5.528-3.02 15.557 2.508 28.639s12.054 21.6 11.057 37.671c-.514 16.072-18.578 35.165-15.557 48.729.996 5.014 6.01 9.546 18.579 13.05 20.089 5.528 56.764 11.057 92.41 19.575 39.665 10.06 80.872 28.125 106.49 24.621 76.339-10.543 32.657-92.41 20.603-111.985-64.8-101.443-107.486-167.754-141.621-141.622-8.55 7.04-9.032-17.068-8.55-26.614 1.51-33.14 18.064-45.193 28.125-70.81 19.093-48.73 33.653-104.465 62.775-133.104 21.6-28.125 55.735-73.833 62.26-97.94-5.528-52.232-7.039-107.485-8.035-155.7-.997-51.718 7.039-96.943 65.282-128.571C441.22 65.02 459.8 62 479.375 62c34.65-.514 73.318 9.546 97.94 27.61 39.181 29.122 63.77 90.9 60.781 135.097-2.025 34.65 4.018 70.329 15.075 107.486 13.05 43.682 33.654 74.314 66.793 109.478 39.665 42.204 70.811 125.068 79.843 177.783 8.036 49.21-3.021 79.842-13.564 81.353-16.072 2.507-26.1 53.229-76.34 51.236-32.142-1.51-35.164-20.604-44.196-37.157-14.56-25.618-29.121-17.582-34.65 9.546-3.021 13.564-.996 33.654 3.504 48.729 9.032 31.628 6.01 61.264.514 97.939-10.543 69.3 48.729 82.35 88.393 49.21 39.182-32.656 47.7-37.67 96.943-54.739 74.828-25.617 49.725-48.214 9.546-61.778-36.16-12.054-37.671-72.836-24.621-84.375 3.021 65.282 37.157 74.828 51.235 83.86z"/></svg>