<svg viewBox="0 0 1024 1024"><path fill="#fff" d="M582.5 537.5c-15 0 3 7.5 22.5 10.5 5.25-3.75 10.125-8.25 14.625-12.375A112.5 112.5 0 0 1 582.5 537.5m80.25-19.875c8.625-12.375 15-25.875 17.625-39.75-2.25 10.125-7.5 18.75-12.375 27.375-28.125 17.625-2.625-10.125 0-21-30 37.875-4.125 22.5-5.25 33.375M692 440.75c1.875-27-5.25-18.75-7.5-8.25 2.625 1.5 4.875 18.75 7.5 8.25M526.25 73.625c7.5 1.5 16.875 2.625 15.75 4.5 8.625-1.875 10.5-3.75-16.125-4.5m16.125 4.5l-5.625 1.125 5.25-.375v-.75m248.625 372.75c.75 24-7.5 35.625-14.25 56.25l-13.125 6.75c-10.5 20.25 1.125 13.125-6.375 29.25-16.5 14.625-50.25 45.75-60.75 48.75-7.5 0 5.25-9.375 7.125-12.75-22.125 15-18 22.5-51.375 31.875l-1.125-2.25c-83.25 39-198.75-38.25-196.875-144-1.125 6.375-2.625 4.875-4.5 7.5A133.125 133.125 0 0 1 524 341a126 126 0 0 1 139.875 18 125.25 125.25 0 0 0-102-48.75c-44.25.375-85.5 28.5-99.375 58.875-22.5 14.25-25.125 55.125-34.875 62.25-13.5 97.5 24.75 139.5 89.25 189 10.125 7.125 3 7.875 4.5 13.125A176.25 176.25 0 0 1 464 590c8.625 12.375 17.625 24.75 30 34.125-20.625-6.75-47.625-48.75-55.5-50.625 34.875 62.25 141.75 109.5 197.25 86.25a232.5 232.5 0 0 1-87.375-10.5c-12.375-6-28.875-19.125-26.25-21.375a217.5 217.5 0 0 0 221.25-31.5c16.5-13.125 34.875-35.25 40.125-35.625-7.5 12 1.5 6-4.5 16.5 16.5-27-7.5-11.25 17.25-46.5l9 12.375c-3.375-22.5 27.75-49.5 24.75-84.75 7.125-11.25 7.5 11.25 0 36.375 10.875-27.75 3-31.875 5.625-54.75 3 7.5 6.75 15.75 8.625 23.625-6.75-26.25 7.5-45 10.5-60-3.375-1.875-10.5 11.25-12-19.875 0-13.875 3.75-7.5 5.25-10.5-3-1.875-9.75-12-14.25-32.25 3-4.875 8.25 12.375 12.75 12.75-3-15.75-7.5-28.125-7.5-40.5-12.75-25.5-4.5 3.75-15-11.25-12.75-40.875 11.25-9.375 12.75-27.75 20.25 28.875 31.5 73.5 36.75 92.25-3.75-22.5-10.5-45-18.375-66 6 2.625-9.75-46.5 7.875-13.875A293.25 293.25 0 0 0 725.75 122c6.75 6.375 15.75 14.625 12.375 15.75-28.125-16.875-23.25-18-27.375-25.125-22.875-9.375-24.375.75-39.75 0C627.5 89.375 619.25 92 579.5 77l1.875 8.625c-28.875-9.375-33.75 3.75-64.875 0-1.875-1.5 10.125-5.25 19.875-6.75-27.75 3.75-26.25-5.25-53.625 1.125 6.375-4.875 13.5-7.875 20.625-12-22.5 1.5-54 13.125-44.25 2.625C422 87.5 356.375 110.75 319.625 145.25L318.5 137c-16.875 20.25-73.5 60.375-78 86.625l-4.875 1.125c-8.625 15-14.25 31.875-21.375 47.25-11.25 19.5-16.875 7.5-15 10.5-22.5 45.75-33.75 84.375-43.5 116.25 6.75 10.125 0 61.875 2.625 103.5-11.25 204.75 144 403.875 313.5 450 25.125 8.625 61.875 8.625 93.375 9.375-37.125-10.5-42-5.625-78-18.375-26.25-12-31.875-26.25-50.25-42.375L444.5 914c-36.375-12.75-21.375-15.75-51-25.125l7.875-10.125c-11.625-1.125-31.125-19.875-36.375-30.375l-12.75.375c-15.375-18.75-23.625-32.625-22.875-43.5l-4.125 7.5c-4.875-7.875-57-71.25-30-56.625-4.875-4.5-11.625-7.5-18.75-20.625l5.25-6.375c-13.125-16.5-24-38.25-23.25-45 7.5 9 12 11.25 16.875 12.375-33-81.375-34.875-4.5-60-82.5l5.625-.75c-3.75-6-6.75-12.75-9.75-19.125l2.25-22.5c-23.625-27.75-6.75-116.25-3.375-165 2.625-20.25 19.875-41.25 33-74.25l-7.875-1.5c15-26.625 87.75-107.625 121.5-103.5 16.125-20.625-3.375 0-6.75-5.25 36-37.125 47.25-26.25 71.25-33 26.25-15-22.5 6-10.125-5.625 45-11.25 31.875-26.25 90.75-31.875 6 3.75-14.625 5.25-19.5 9.75 37.5-18.375 118.125-13.875 171 10.125 61.125 28.875 129.75 112.875 132.375 192.375l3 .75c-1.5 31.875 4.875 68.25-6.375 101.625l7.5-15.75M419.75 558.125l-1.875 10.5c9.75 13.125 17.625 27.375 30 37.875-9-17.625-15.75-24.75-28.125-48.75M443 557c-5.25-5.625-8.25-12.75-11.625-19.5 3 12 9.75 22.5 16.125 33L443 557m410.25-89.25l-2.625 5.625c-3.75 28.5-12.75 56.625-25.875 82.875 15-27.375 24.375-57.75 28.125-88.5m-324-401.25C539 62.75 553.625 64.625 564.5 62c-13.875 1.125-27.75 1.875-41.25 3.75l5.625.75m-354 188.25c2.625 21.375-16.125 30 4.125 15.75 11.25-24.75-4.125-6.75-3.75-15.75m-24 99.75c4.5-14.625 5.625-23.25 7.5-31.5-13.125 16.5-6.375 19.875-7.5 31.125"/></svg>