<svg viewBox="0 0 1024 1024"><path fill="#fff" d="M512 62L407 167h75v262.5l30 30 33.75-33.75V167H617L512 62zm48.75 120v232.5l150-150L632 185.75c0-3.75-71.25-3.75-71.25-3.75zm93.75 0l75 75 3.75 3.75-3.75 3.75L560.75 437v30h30L759.5 298.25l3.75-3.75 3.75 3.75 75 75v-187.5C842 182 654.5 182 654.5 182zM182 182v183.75l71.25-71.25 3.75-3.75 3.75 3.75L429.5 463.25h30V437l-165-168.75-3.75-7.5 3.75-3.75 71.25-71.25L182 182zm210 0l-78.75 78.75L467 414.5V182h-75zm371.25 131.25l-150 150H842V392l-78.75-78.75zm-502.5 0L182 392v75h228.75l-150-153.75zM167 407L62 512l105 105v-75h262.5l30-30-33.75-33.75H167v-7.5V407zm690 0v71.25H594.5l-30 33.75 30 30H857v75l105-105-105-105zM182 557v75l78.75 78.75L414.5 557H182zm255 0L268.25 725.75l-3.75 3.75-3.75-3.75-71.25-71.25v183.75h183.75L302 767l-3.75-3.75 3.75-3.75 168.75-168.75v-30L437 557zm123.75 0v33.75L729.5 759.5l3.75 3.75-3.75 3.75-71.25 71.25h187.5V654.5l-75 75-3.75 3.75-3.75-3.75L587 557h-26.25zm48.75 0l153.75 153.75L842 632v-75H609.5zm-97.5 7.5l-30 30V857h-78.75L512 962l105-105h-75V598.25c3.75 0-30-33.75-30-33.75zm-45 45L313.25 763.25l75 75h75V609.5H467zm93.75 3.75V842h75l75-75-150-153.75z"/></svg>