<svg viewBox="0 0 1024 1024"><path fill="#fff" d="M957.486 101.392v354.714c0 17.574-14.173 31.86-31.746 31.999l-418.742 3.323c-17.772.141-32.254-14.227-32.254-31.999V161.212c0-15.925 11.71-29.426 27.475-31.678l418.742-59.82c19.278-2.755 36.525 12.204 36.525 31.678zm-526.801 74.983v283.12c0 17.574-14.173 31.86-31.746 31.999l-299.972 2.381c-17.772.141-32.254-14.227-32.254-31.999V219.229c0-15.925 11.71-29.426 27.475-31.678l299.972-42.853c19.277-2.755 36.525 12.204 36.525 31.677zm526.801 393.157v352.816c0 19.423-17.163 34.368-36.402 31.696l-418.742-58.159c-15.82-2.197-27.598-15.724-27.598-31.696v-296.32c0-17.723 14.404-32.07 32.127-32l418.742 1.662c17.624.072 31.873 14.378 31.873 32.001zm-528.717-3.873v282.22c0 19.34-17.023 34.26-36.196 31.724L94.516 840.177c-15.913-2.105-27.804-15.673-27.804-31.724V564.082c0-17.739 14.43-32.093 32.169-32l298.056 1.577c17.608.094 31.832 14.393 31.832 32z"/></svg>